<?xml version="1.0" encoding="utf-8"?>
<!-- Generator: Adobe Illustrator 24.1.1, SVG Export Plug-In . SVG Version: 6.00 Build 0)  -->
<svg version="1.1" id="Layer_1" xmlns:svgjs="http://svgjs.com/svgjs"
	 xmlns="http://www.w3.org/2000/svg" xmlns:xlink="http://www.w3.org/1999/xlink" x="0px" y="0px" viewBox="0 0 64 64"
	 style="enable-background:new 0 0 64 64;" xml:space="preserve">
<style type="text/css">
	.st0{fill:#DBEDF0;}
	.st1{fill:none;stroke:#DBEDF0;stroke-width:2;stroke-miterlimit:10;}
</style>
<g>
	<path class="st0" d="M32,17.2c-6,0-11.9,2.5-16,7c-0.4,0.4-0.3,1,0.1,1.3c0.4,0.4,1,0.3,1.3-0.1l0,0c3.7-4.1,9.1-6.4,14.6-6.4
		c10.9,0,19.8,8.9,19.8,19.8S42.9,58.8,32,58.8c-10.9,0-19.8-8.9-19.8-19.8c0-3.6,0.9-7,2.7-10.1c0.3-0.4,0.1-1-0.3-1.3
		c-0.4-0.3-1-0.1-1.3,0.3c-2,3.3-3,7.1-3,11c0,12,9.7,21.7,21.7,21.7S53.7,50.9,53.7,39S44,17.2,32,17.2z"/>
	<path class="st0" d="M53.1,13.2c-0.3,0.4-0.1,1,0.3,1.3c0,0,0,0,0,0c0.4,0.3,1,0.1,1.3-0.3l7.1-12.3c0.2-0.4,0.2-0.8,0-1.2
		c-0.2-0.4-0.6-0.6-1-0.6H40.2c-0.4,0-0.8,0.2-1,0.6L32,13L24.9,0.6c-0.2-0.4-0.6-0.6-1-0.6H3.2c-0.4,0-0.8,0.2-1,0.6
		C1.9,1,1.9,1.4,2.1,1.8l11.6,20.1C9.5,26.3,7,32.4,7,39c0,13.8,11.2,25,25,25s25-11.2,25-25c0-6.6-2.6-12.6-6.7-17.1l2.2-3.8
		c0.3-0.4,0.1-1-0.3-1.3c0,0,0,0,0,0c-0.4-0.3-1-0.1-1.3,0.3c0,0,0,0,0,0l-1.9,3.4c-1.1-1-2.2-1.9-3.4-2.6l9.2-16h4.9L53.1,13.2z
		 M40.6,1.9h4.9l-7.4,12.8c-1.5-0.4-3-0.6-4.5-0.7L40.6,1.9z M30.4,14c-1.5,0.1-3,0.3-4.5,0.7L18.5,1.9h4.9L30.4,14z M16.3,1.9
		L24,15.2c-1.4,0.5-2.7,1-3.9,1.7l-8.7-15H16.3z M9.2,1.9l9.2,16c-1.2,0.8-2.4,1.7-3.4,2.6L4.3,1.9H9.2z M32,62.1
		C19.2,62.1,8.8,51.7,8.8,39S19.2,15.8,32,15.8S55.2,26.2,55.2,39S44.8,62.1,32,62.1z M43.9,16.9c-1.3-0.7-2.6-1.3-3.9-1.7l7.7-13.3
		h4.9L43.9,16.9z"/>
	<path class="st0" d="M37.6,43c-0.5,0-0.9,0.4-0.9,0.9l0,0v2.4c0,0.6,0.5,1.1,1.1,1.1h2.9c0.6,0,1.1-0.5,1.1-1.1V43l3.7,4.5
		c0.2,0.2,0.4,0.4,0.7,0.4c0.3,0,0.6-0.1,0.8-0.2l2.2-1.8c0.5-0.4,0.5-1,0.2-1.5c0,0,0,0,0,0L44.8,39l4.4-5.5
		c0.4-0.5,0.3-1.1-0.2-1.5c0,0,0,0,0,0l-2.2-1.8c-0.2-0.2-0.5-0.3-0.8-0.2c-0.3,0-0.5,0.2-0.7,0.4l-3.7,4.5v-3.3
		c0-0.6-0.5-1.1-1.1-1.1h-2.9c-0.6,0-1.1,0.5-1.1,1.1v7.9c0,0.5,0.4,0.9,0.9,0.9s0.9-0.4,0.9-0.9v-7.1h1.2v5.1
		c0,0.5,0.4,0.9,0.9,0.9c0.3,0,0.5-0.1,0.7-0.3l4.8-6l1,0.8l-4.4,5.4c-0.3,0.3-0.3,0.8,0,1.2l4.4,5.4l-1,0.8l-4-4.9
		c-0.3-0.4-0.9-0.5-1.3-0.1c-0.1,0-0.1,0.1-0.1,0.1l-0.8,1c-0.1,0.2-0.2,0.4-0.2,0.6v3h-1.2v-1.6C38.6,43.4,38.1,43,37.6,43
		C37.6,43,37.6,43,37.6,43z"/>
</g>
<g>
	<path class="st1" d="M14.5,44v-2.7l4.2-10.5h2.9l-4.1,10.4h6.2V44H14.5z M20,46.4v-9.2h2.6v9.2H20z"/>
	<path class="st1" d="M26,46.4v-2.7l4.7-7c0.2-0.3,0.4-0.6,0.5-1c0.1-0.3,0.2-0.6,0.2-0.9v0c0-0.4-0.1-0.7-0.4-1
		c-0.2-0.2-0.6-0.3-1-0.3c-0.4,0-0.8,0.2-1,0.5c-0.3,0.3-0.4,0.8-0.5,1.4v0h-2.6v0c0.1-1.5,0.5-2.6,1.2-3.4c0.7-0.8,1.7-1.2,2.9-1.2
		c1.3,0,2.3,0.4,3,1.1c0.7,0.7,1.1,1.7,1.1,3v0c0,0.7-0.1,1.4-0.3,2.1s-0.5,1.3-0.9,1.9l-3.4,4.9h4.7v2.8H26z"/>
</g>
</svg>
